<?xml version="1.0" standalone="no"?>
<!DOCTYPE svg PUBLIC "-//W3C//DTD SVG 20010904//EN"
 "http://www.w3.org/TR/2001/REC-SVG-20010904/DTD/svg10.dtd">
<svg version="1.0" xmlns="http://www.w3.org/2000/svg"
 width="165.000000pt" height="63.000000pt" viewBox="0 0 165.000000 63.000000"
 preserveAspectRatio="xMidYMid meet">
<metadata>
Created by potrace 1.15, written by Peter Selinger 2001-2017
</metadata>
<g transform="translate(0.000000,63.000000) scale(0.100000,-0.100000)"
fill="#000000" stroke="none">
<path d="M959 531 c-25 -20 -27 -40 -29 -273 l0 -28 -106 0 -106 0 16 25 c17
25 20 52 10 79 -5 12 -21 16 -73 16 l-66 0 -33 50 -32 50 -98 0 -98 0 -37 -49
c-34 -45 -42 -49 -100 -60 -92 -18 -95 -19 -103 -53 -5 -26 -2 -35 16 -50 13
-11 29 -17 36 -14 7 3 15 -6 18 -20 13 -51 85 -53 101 -4 6 19 15 20 124 20
116 0 118 0 129 -25 15 -33 57 -43 82 -20 11 10 20 23 20 29 0 8 79 10 269 8
l268 -3 11 -24 c16 -35 68 -35 84 0 11 25 13 25 130 25 l118 0 -2 151 c-4 204
19 189 -288 189 -219 0 -240 -1 -261 -19z m119 -73 c8 -8 12 -49 12 -120 l0
-108 -40 0 -40 0 0 113 c0 63 3 117 7 120 11 11 48 8 61 -5z m360 0 c7 -7 12
-27 12 -45 l0 -34 -112 3 -113 3 -3 43 -3 42 103 0 c68 0 108 -4 116 -12z"/>
</g>
</svg>
